<?xml version="1.0" standalone="no"?>
<!DOCTYPE svg PUBLIC "-//W3C//DTD SVG 20010904//EN"
 "http://www.w3.org/TR/2001/REC-SVG-20010904/DTD/svg10.dtd">
<svg version="1.0" xmlns="http://www.w3.org/2000/svg"
 width="512.000000pt" height="512.000000pt" viewBox="0 0 512.000000 512.000000"
 preserveAspectRatio="xMidYMid meet">
<metadata>
Created by potrace 1.14, written by Peter Selinger 2001-2017
</metadata>
<g transform="translate(0.000000,512.000000) scale(0.100000,-0.100000)"
fill="#000000" stroke="none">
<path d="M0 2560 l0 -2560 2560 0 2560 0 0 2560 0 2560 -2560 0 -2560 0 0
-2560z m2880 1909 c393 -68 735 -240 1019 -514 178 -172 291 -326 396 -540
265 -541 265 -1167 0 -1709 -191 -393 -531 -724 -924 -900 -239 -108 -433
-157 -701 -177 -287 -21 -635 45 -913 173 l-70 32 -489 -98 c-461 -92 -491
-96 -514 -81 -14 9 -24 25 -24 39 0 13 38 242 85 510 l86 487 -36 80 c-60 136
-103 273 -132 417 -26 127 -28 154 -28 377 0 255 4 294 55 490 155 594 589
1082 1164 1306 330 129 684 166 1026 108z"/>
<path d="M2405 4374 c-400 -41 -761 -196 -1050 -453 -421 -373 -652 -937 -606
-1479 21 -244 76 -458 171 -667 l31 -70 -80 -460 c-44 -252 -79 -461 -77 -463
2 -2 201 35 443 82 241 47 449 86 461 86 12 0 48 -13 80 -29 369 -185 871
-226 1297 -104 189 54 403 160 560 278 583 439 845 1124 704 1835 -125 628
-589 1150 -1207 1357 -164 55 -328 82 -522 87 -91 2 -183 2 -205 0z m148 -330
c60 -45 57 -4 57 -818 0 -410 3 -746 8 -746 4 0 79 72 167 161 190 191 223
210 298 174 48 -23 77 -72 77 -130 l0 -48 -142 -146 c-79 -80 -220 -221 -314
-313 l-171 -168 -58 0 -59 0 -299 298 c-164 163 -305 309 -313 324 -43 81 28
198 121 198 49 0 94 -36 250 -197 81 -84 151 -153 156 -153 5 0 10 329 11 749
3 740 3 750 24 778 45 62 131 79 187 37z m-1091 -1801 c41 -37 48 -66 48 -202
0 -72 5 -154 11 -183 37 -172 178 -303 354 -328 95 -13 1121 -13 1205 1 144
23 256 102 317 227 l38 76 6 170 c3 113 10 180 19 199 42 85 192 90 235 7 12
-23 15 -67 15 -205 0 -202 -6 -237 -65 -360 -69 -144 -167 -244 -308 -316
-148 -75 -133 -74 -857 -74 -723 0 -707 -1 -858 71 -76 37 -108 60 -176 127
-68 68 -91 99 -130 177 -61 125 -76 199 -76 388 0 160 6 187 49 226 41 38 131
37 173 -1z"/>
</g>
</svg>
